Coordinates
version=1
nRows=11
nColumns=63
inDegrees=yes

Units are S.I. units (second, meters, Newtons, ...)
If the header above contains a line with 'inDegrees', this indicates whether rotational values are in degrees (yes) or radians (no).

endheader
time	pelvis_tilt	pelvis_list	pelvis_rotation	pelvis_tx	pelvis_ty	pelvis_tz	hip_flexion_r	hip_adduction_r	hip_rotation_r	knee_angle_r	knee_angle_r_beta	ankle_angle_r	subtalar_angle_r	mtp_angle_r	hip_flexion_l	hip_adduction_l	hip_rotation_l	knee_angle_l	knee_angle_l_beta	ankle_angle_l	subtalar_angle_l	mtp_angle_l	L5_S1_Flex_Ext	L5_S1_Lat_Bending	L5_S1_axial_rotation	L4_L5_Flex_Ext	L4_L5_Lat_Bending	L4_L5_axial_rotation	L3_L4_Flex_Ext	L3_L4_Lat_Bending	L3_L4_axial_rotation	L2_L3_Flex_Ext	L2_L3_Lat_Bending	L2_L3_axial_rotation	L1_L2_Flex_Ext	L1_L2_Lat_Bending	L1_L2_axial_rotation	L1_T12_Flex_Ext	L1_T12_Lat_Bending	L1_T12_axial_rotation	Abs_r3	Abs_r2	Abs_r1	Abs_t1	Abs_t2	neck_flexion	neck_bending	neck_rotation	arm_flex_r	arm_add_r	arm_rot_r	elbow_flex_r	pro_sup_r	wrist_flex_r	wrist_dev_r	arm_flex_l	arm_add_l	arm_rot_l	elbow_flex_l	pro_sup_l	wrist_flex_l	wrist_dev_l
      0.00000000	      6.11207572	     -3.71065109	     88.06686906	      0.32588765	      0.90145804	      0.60383189	      5.54625800	      5.37738686	    -14.04271870	      6.18350770	      0.10792257	     15.71013876	     12.29341516	      0.00000000	      4.77848613	     -8.50773702	     22.78816860	      1.46830418	      0.02562674	     19.24875951	    -11.95735829	      0.00000000	      0.05147342	      0.82868565	     -0.66283632	      0.09559129	      1.10215191	     -0.70426359	      0.08456569	      2.01486629	     -0.70426359	      0.05882897	      2.01486629	     -0.57998178	      0.04779822	      1.68985577	     -0.53855451	      0.02941191	      1.28363407	     -0.49712724	      0.36766951	      9.37425779	     -3.68649674	      0.00000000	      0.00000000	     28.05754295	      9.43969472	     12.54059854	      2.37889418	    -14.85486632	     34.13044131	     25.73455077	     80.55406325	     -5.71419505	      3.32522572	     13.43757710	     -0.91915463	    146.98556755	      5.45529696	      2.57849169	     -4.34283966	    -15.53674017
      0.01694915	      5.30661687	     -3.32486518	     89.24047106	      0.32441740	      0.90219524	      0.60479256	      5.38511019	      4.37133923	    -12.94610480	      6.15203486	      0.10737326	     19.62139291	     10.85007654	      0.00000000	      5.05017035	     -7.59409210	     19.92879166	      0.77973195	      0.01360889	     24.02898219	     -7.27947163	      0.00000000	      0.05845567	      0.71954726	     -0.72347664	      0.10855802	      0.95699786	     -0.76869394	      0.09603681	      1.74950721	     -0.76869394	      0.06680898	      1.74950721	     -0.63304206	      0.05428193	      1.46730077	     -0.58782477	      0.03340157	      1.11457870	     -0.54260748	      0.41754297	      8.13966251	     -4.02376006	      0.00000000	      0.00000000	     28.10116973	      8.51735444	     10.72122377	      2.41639742	    -14.71458683	     32.90814039	     25.75415376	     83.79185645	     -4.38808203	      4.88921955	     14.30141525	     -1.74556205	    142.68324041	      7.61311914	      3.47626263	     -5.22223527	    -15.99468150
      0.03389831	      4.63351282	     -3.09892479	     90.32910994	      0.32289276	      0.90270754	      0.60565411	      5.34625915	      3.42450932	    -13.67134166	      6.34837219	      0.11080000	     21.92031958	     11.12315878	      0.00000000	      5.41880500	     -6.75349697	     18.52648581	      0.53637743	      0.00936155	     26.66299307	     -4.41084085	      0.00000000	      0.06946633	      0.62918919	     -0.81636460	      0.12900592	      0.83682163	     -0.86738739	      0.11412623	      1.52981060	     -0.86738739	      0.07939306	      1.52981060	     -0.71431903	      0.06450643	      1.28304260	     -0.66329624	      0.03969306	      0.97461406	     -0.61227345	      0.49619102	      7.11751398	     -4.54037500	      0.00000000	      0.00000000	     28.13047648	      7.88097002	      8.95368642	      2.61153762	    -14.67110251	     33.29981656	     25.54724618	     85.09374250	     -3.96852506	      5.24656640	     14.75271284	     -2.33876102	    140.95351808	      8.60476598	      3.56077842	     -5.45542102	    -16.42535824
      0.05084746	      4.33146579	     -2.98535318	     90.68456435	      0.32191522	      0.90298892	      0.60626982	      5.32584038	      2.96493688	    -13.85132584	      6.51451602	      0.11369975	     22.63470227	     10.98588718	      0.00000000	      5.59395085	     -6.32394354	     18.38805746	      0.40622469	      0.00708996	     27.99347186	     -4.48817212	      0.00000000	      0.07272742	      0.59930912	     -0.83467798	      0.13506209	      0.79708113	     -0.88684535	      0.11948388	      1.45716019	     -0.88684535	      0.08312017	      1.45716019	     -0.73034323	      0.06753468	      1.22211116	     -0.67817586	      0.04155645	      0.92832983	     -0.62600848	      0.51948468	      6.77950462	     -4.64222850	      0.00000000	      0.00000000	     28.14097291	      8.04256594	      8.73888355	      2.68438232	    -14.79213779	     33.42722777	     25.56647966	     85.27349015	     -3.89988270	      5.40933432	     14.91424997	     -2.47811718	    140.84577719	      8.69880971	      3.51712588	     -5.38075633	    -16.52023927
      0.06779661	      3.58108581	     -2.89919753	     91.40487668	      0.32080202	      0.90295686	      0.60714893	      5.57980116	      1.72759006	    -17.53951170	      7.52610871	      0.13135538	     23.77028375	     14.77713165	      0.00000000	      5.80889139	     -5.46992656	     11.44287035	      0.42079946	      0.00734434	     30.10453152	      6.01362915	      0.00000000	      0.06995171	      0.50350574	     -0.92808255	      0.12990732	      0.66966264	     -0.98608770	      0.11492367	      1.22422387	     -0.98608770	      0.07994781	      1.22422387	     -0.81207223	      0.06495716	      1.02674891	     -0.75406707	      0.03997041	      0.77993040	     -0.69606191	      0.49965807	      5.69575769	     -5.16171669	      0.00000000	      0.00000000	     28.14831752	      8.45101853	      7.74220437	      2.79681039	    -14.53453028	     33.59319954	     25.47126174	     86.17651203	     -4.08532437	      5.53226367	     15.10457567	     -3.18507009	    137.87788941	      9.35000411	      4.60995040	     -5.05783663	    -17.38874028
      0.08474576	      3.28839926	     -2.84294712	     91.59449068	      0.32033292	      0.90282935	      0.60737731	      5.51574624	      1.35568633	    -17.47175431	      7.75283741	      0.13531254	     23.29143414	     14.23320629	      0.00000000	      5.76304036	     -5.12161841	     11.20201087	      0.40226164	      0.00702079	     30.30322011	      6.41061256	      0.00000000	      0.06610041	      0.46997267	     -0.96663941	      0.12275508	      0.62506365	     -1.02705438	      0.10859637	      1.14269155	     -1.02705438	      0.07554616	      1.14269155	     -0.84580949	      0.06138084	      0.95836827	     -0.78539452	      0.03776978	      0.72798767	     -0.72497956	      0.47214864	      5.31642486	     -5.37615843	      0.00000000	      0.00000000	     28.14387620	      8.83809693	      7.26996924	      2.93784505	    -14.51672017	     34.60956526	     25.29997217	     85.65116937	     -4.71771504	      5.03616263	     15.00063488	     -3.48359534	    136.41340116	      9.28831944	      5.18320168	     -4.56600648	    -18.01966091
      0.10169492	      3.17966954	     -2.81728019	     91.60793554	      0.31998308	      0.90262368	      0.60772464	      5.56128059	      1.15062393	    -17.86786757	      8.14644627	      0.14218231	     22.60657601	     14.31519840	      0.00000000	      5.65011982	     -4.99875663	     11.11072535	      0.41035305	      0.00716201	     30.18964003	      6.36152485	      0.00000000	      0.05239948	      0.46239439	     -0.96925069	      0.09731107	      0.61498453	     -1.02982885	      0.08608710	      1.12426571	     -1.02982885	      0.05988736	      1.12426571	     -0.84809435	      0.04865815	      0.94291463	     -0.78751618	      0.02994106	      0.71624890	     -0.72693801	      0.37428421	      5.23069777	     -5.39068154	      0.00000000	      0.00000000	     28.14163230	      9.17969760	      6.89859602	      2.86279902	    -14.56910346	     34.54581292	     25.45387968	     85.73377251	     -4.98970503	      4.83638659	     14.95799072	     -3.52609327	    136.30333946	      8.97574326	      4.89059712	     -4.28629086	    -18.33396097
      0.11864407	      2.99540660	     -2.86877841	     91.63271484	      0.31969645	      0.90226305	      0.60778437	      5.67115570	      0.78167911	    -19.39214848	      8.61031613	      0.15027837	     22.48396670	     16.13236195	      0.00000000	      5.56541472	     -4.79990133	     11.34241885	      0.44001309	      0.00767968	     29.83399551	      5.81194883	      0.00000000	      0.05049913	      0.44273277	     -0.95806386	      0.09378193	      0.58883459	     -1.01794285	      0.08296502	      1.07646047	     -1.01794285	      0.05771545	      1.07646047	     -0.83830588	      0.04689349	      0.90282067	     -0.77842689	      0.02885520	      0.68579307	     -0.71854790	      0.36071022	      5.00828169	     -5.32846379	      0.00000000	      0.00000000	     28.14208158	      9.20998656	      5.88212102	      2.66554814	    -14.44822169	     34.34581975	     25.39858257	     85.80454280	     -5.78281448	      4.37734743	     14.74240628	     -3.49037671	    136.91841352	      8.02849643	      3.67735906	     -2.21602960	    -18.81312592
      0.13559322	      2.94705381	     -2.94862899	     91.55938923	      0.31976421	      0.90198793	      0.60779841	      5.72365208	      0.73672465	    -19.40505177	      8.72074968	      0.15220580	     22.12558727	     16.33418396	      0.00000000	      5.50569061	     -4.77334449	     11.32641098	      0.46969782	      0.00819777	     29.59961293	      5.43049956	      0.00000000	      0.04478794	      0.43964969	     -0.94051714	      0.08317569	      0.58473409	     -0.99929947	      0.07358211	      1.06896426	     -0.99929947	      0.05118814	      1.06896426	     -0.82295250	      0.04159009	      0.89653365	     -0.76417018	      0.02559183	      0.68101737	     -0.70538786	      0.31991581	      4.97340522	     -5.23087420	      0.00000000	      0.00000000	     28.14213044	      9.25748670	      5.24269546	      2.49474009	    -14.40348425	     34.05942927	     25.46142484	     85.60698014	     -6.11086550	      4.23032993	     14.58866916	     -3.49883788	    136.69044226	      7.55924271	      3.12481299	     -1.55370246	    -19.29284235
      0.15254237	      2.90292430	     -3.02099073	     91.56246321	      0.31978688	      0.90188392	      0.60796617	      5.77400366	      0.71908744	    -19.27981829	      8.75195215	      0.15275038	     21.92831131	     16.45103588	      0.00000000	      5.50607283	     -4.74165786	     11.19465247	      0.50141145	      0.00875128	     29.33359760	      5.23344835	      0.00000000	      0.03313422	      0.43860623	     -0.93987107	      0.06153355	      0.58334629	     -0.99861301	      0.05443620	      1.06642719	     -0.99861301	      0.03786909	      1.06642719	     -0.82238719	      0.03076843	      0.89440583	     -0.76364525	      0.01893289	      0.67940105	     -0.70490330	      0.23667439	      4.96160142	     -5.22728093	      0.00000000	      0.00000000	     28.14994305	      9.27496571	      4.88065112	      2.46125199	    -14.42977849	     33.97303095	     25.52300249	     85.54373810	     -6.12195083	      4.28547876	     14.58248342	     -3.50967859	    136.44805985	      7.32133850	      2.85056267	     -1.27907357	    -19.41981456
      0.16949153	      2.76204499	     -3.16508224	     91.30196534	      0.32036629	      0.90177994	      0.60787576	      5.87831360	      0.66845841	    -18.74049605	      8.64006626	      0.15079760	     22.08793615	     16.58346201	      0.00000000	      5.55911330	     -4.64064623	     10.99097810	      0.51534028	      0.00899438	     29.23365638	      4.70246019	      0.00000000	      0.04220239	      0.42143064	     -0.88350508	      0.07837407	      0.56050275	     -0.93872414	      0.06933431	      1.02466646	     -0.93872414	      0.04823312	      1.02466646	     -0.77306694	      0.03918914	      0.85938136	     -0.71784788	      0.02411445	      0.65279606	     -0.66262881	      0.30144748	      4.76730769	     -4.91379019	      0.00000000	      0.00000000	     28.16448532	      8.87806474	      4.16366455	      2.44551573	    -14.38901410	     33.89819262	     25.54768635	     85.55546627	     -5.91713933	      4.82181512	     14.58777604	     -3.65483744	    135.53146555	      7.32025499	      2.45981104	     -0.29654679	    -19.53942528
